<?xml version="1.0" standalone="no"?>
<!DOCTYPE svg PUBLIC "-//W3C//DTD SVG 20010904//EN"
 "http://www.w3.org/TR/2001/REC-SVG-20010904/DTD/svg10.dtd">
<svg version="1.0" xmlns="http://www.w3.org/2000/svg"
 width="517.000000pt" height="636.000000pt" viewBox="0 0 517.000000 636.000000"
 preserveAspectRatio="xMidYMid meet">

<g transform="translate(0.000000,636.000000) scale(0.100000,-0.100000)"
fill="#000000" stroke="none">
<path d="M3569 5886 c-126 -45 -197 -148 -187 -274 8 -106 74 -195 167 -229
l51 -18 0 -392 0 -393 -358 0 c-271 0 -362 -3 -375 -12 -15 -11 -17 -41 -19
-238 l-3 -225 -142 -3 -143 -3 0 421 0 420 168 0 c220 0 212 -5 212 139 l0
109 30 6 c17 3 50 19 74 35 139 96 154 297 30 411 -59 54 -105 73 -179 73
-151 1 -268 -116 -267 -266 0 -125 75 -220 205 -261 14 -4 17 -17 17 -76 l0
-70 -168 0 c-135 0 -172 -3 -190 -16 l-22 -15 0 -455 0 -454 -110 0 -110 0 0
220 c0 207 -1 221 -20 240 -19 19 -33 20 -380 20 l-360 0 2 302 3 301 41 14
c134 45 208 205 159 344 -43 122 -174 195 -301 169 -160 -33 -251 -198 -197
-355 21 -63 93 -137 154 -157 l44 -15 5 -341 c3 -187 9 -344 13 -349 5 -4 173
-9 373 -11 l364 -3 0 -189 0 -190 -215 0 c-290 0 -295 -3 -295 -166 l0 -84
-335 0 -335 0 2 297 3 296 32 11 c131 45 208 194 169 328 -32 112 -140 191
-257 191 -219 -2 -339 -242 -213 -425 28 -40 114 -98 147 -98 16 0 17 -22 17
-323 0 -276 2 -326 16 -345 l15 -22 370 0 369 0 0 -175 0 -175 -379 0 -380 0
-16 56 c-19 67 -76 133 -143 166 -57 27 -157 29 -215 4 -98 -43 -160 -138
-160 -246 0 -78 18 -124 72 -183 l41 -44 -49 24 c-133 66 -308 -4 -361 -144
-70 -187 73 -378 270 -360 102 9 195 78 228 170 l17 47 537 0 538 0 0 -195 0
-195 -432 0 c-255 0 -439 -4 -448 -10 -12 -8 -16 -47 -18 -233 l-3 -225 -46
-17 c-174 -67 -225 -301 -93 -433 196 -197 523 -4 445 263 -21 72 -97 154
-162 173 l-43 13 0 189 0 190 399 0 399 0 4 -70 c6 -112 10 -114 221 -120
l172 -5 3 -274 c1 -182 6 -279 13 -288 8 -9 40 -13 110 -13 l99 0 0 -38 c0
-36 -2 -38 -49 -55 -57 -20 -119 -76 -146 -132 -27 -57 -32 -155 -10 -212 51
-133 201 -204 336 -158 145 50 220 221 156 356 -14 30 -32 61 -39 69 -24 29
-83 67 -120 80 l-38 12 0 72 c0 43 -5 77 -12 84 -8 8 -47 12 -110 12 l-98 0 0
245 0 245 453 -2 452 -3 3 -457 2 -458 -177 0 c-98 0 -185 -5 -193 -10 -12 -7
-16 -36 -18 -130 l-4 -120 -49 -21 c-60 -26 -130 -101 -147 -157 -28 -94 -9
-189 52 -259 126 -143 349 -117 439 52 31 57 31 183 0 241 -29 54 -89 107
-146 129 l-47 18 0 83 0 84 178 0 c125 0 182 4 190 12 9 9 12 135 12 505 l0
493 155 0 c156 0 197 7 211 39 4 9 10 45 13 81 l6 65 369 0 369 0 -1 -180 c-1
-99 -1 -183 -2 -186 0 -4 -21 -14 -47 -24 -174 -67 -224 -301 -92 -433 124
-125 333 -100 418 50 64 112 48 235 -42 323 -33 32 -68 55 -94 63 l-43 13 0
219 c0 185 -2 221 -16 234 -13 14 -66 16 -420 16 l-404 0 0 195 0 195 547 -2
546 -3 15 -44 c21 -63 94 -133 161 -156 128 -42 270 16 328 134 10 20 19 68
21 109 4 63 1 79 -22 127 -46 93 -131 146 -236 146 -33 0 -64 -2 -70 -6 -6 -4
-2 12 10 36 65 127 12 297 -114 361 -63 32 -159 36 -224 8 -64 -27 -133 -101
-151 -159 l-12 -41 -399 0 -400 0 0 175 0 175 339 0 c295 0 342 2 355 16 14
13 16 53 16 279 l0 264 43 13 c66 20 141 99 162 172 53 184 -88 360 -274 343
-72 -6 -126 -33 -178 -89 -48 -53 -67 -104 -67 -178 2 -110 69 -207 171 -246
28 -11 45 -24 48 -38 3 -12 4 -115 3 -231 l-3 -210 -305 0 -305 0 -5 98 c-5
93 -7 100 -33 123 -28 24 -28 24 -283 24 l-254 0 0 190 0 190 356 0 c226 0
362 4 375 10 18 10 19 26 19 440 l0 429 60 27 c104 47 159 131 160 245 0 179
-179 313 -341 255z m144 -100 c18 -7 45 -28 60 -45 61 -73 55 -167 -14 -233
-133 -127 -338 24 -265 195 34 80 135 119 219 83z m-2193 -188 c52 -27 78 -60
90 -114 12 -51 -3 -105 -40 -148 -40 -45 -79 -60 -141 -54 -104 10 -166 100
-145 210 12 67 90 126 166 128 14 0 46 -10 70 -22z m1466 -10 c52 -36 77 -90
72 -154 -8 -90 -62 -144 -152 -152 -44 -3 -62 0 -96 19 -95 54 -116 180 -42
263 51 57 153 68 218 24z m-1966 -746 c70 -57 88 -133 48 -212 -35 -67 -66
-85 -147 -85 -58 0 -73 4 -103 27 -73 55 -87 172 -30 239 61 73 162 86 232 31z
m3224 -106 c94 -39 126 -177 59 -256 -31 -37 -92 -70 -130 -70 -44 1 -108 34
-137 73 -104 137 47 320 208 253z m-826 -1573 l-3 -838 -837 -3 -838 -2 0 840
0 840 840 0 840 0 -2 -837z m-2709 363 c99 -69 91 -224 -14 -283 -134 -76
-298 61 -244 204 39 104 166 143 258 79z m3951 -18 c52 -35 73 -71 78 -131 7
-86 -41 -155 -122 -176 -111 -28 -210 50 -210 164 0 97 68 164 170 165 37 0
60 -6 84 -22z m-3020 -353 l0 -165 -538 0 -539 0 -12 40 c-6 21 -26 59 -45 83
l-33 43 51 -18 c67 -23 114 -22 179 2 65 24 123 77 149 137 l19 43 384 0 385
0 0 -165z m2685 115 c35 -106 144 -175 263 -168 l58 3 -23 -55 -22 -55 -543 0
-543 0 -3 150 c-1 82 0 155 2 162 4 10 86 13 400 13 l394 0 17 -50z m-3959
-169 c170 -77 114 -321 -74 -321 -87 0 -152 62 -160 153 -5 61 9 96 56 140 50
48 112 58 178 28z m4546 9 c79 -22 137 -109 125 -185 -25 -152 -217 -197 -310
-73 -24 32 -33 105 -18 150 19 57 93 114 151 117 8 1 32 -4 52 -9z m-4071
-1171 c100 -34 147 -146 99 -239 -28 -56 -72 -83 -139 -87 -185 -12 -248 229
-83 317 43 22 75 25 123 9z m3510 0 c45 -15 96 -65 110 -107 26 -79 -15 -178
-87 -208 -77 -32 -173 -5 -214 60 -56 92 -23 203 74 247 48 22 71 23 117 8z
m-1962 -484 c81 -42 109 -169 54 -244 -50 -66 -144 -92 -212 -56 -66 34 -105
111 -91 183 21 115 143 172 249 117z m391 -520 c57 -29 90 -84 90 -150 0 -50
-10 -77 -44 -113 -116 -129 -331 -11 -286 157 27 102 145 153 240 106z"/>
<path d="M2043 3746 c-64 -29 -63 -22 -63 -581 0 -552 1 -558 56 -584 18 -8
178 -11 548 -11 l524 0 31 29 31 29 0 531 0 531 -29 32 -29 33 -519 2 c-426 2
-524 0 -550 -11z m1027 -581 l0 -495 -495 0 -495 0 0 488 c0 269 3 492 7 495
3 4 226 7 495 7 l488 0 0 -495z"/>
<path d="M2671 3370 c-46 -213 -55 -415 -25 -558 21 -101 29 -116 44 -77 21
54 32 125 28 179 l-3 54 35 -38 c43 -46 78 -57 133 -40 108 32 172 175 136
304 -34 123 -152 191 -247 142 -17 -9 -40 -26 -51 -37 l-19 -21 -15 49 c-8 26
-15 46 -16 43z m158 -94 c73 -38 132 -142 133 -236 1 -70 -12 -90 -59 -90 -95
0 -182 117 -183 247 0 89 37 116 109 79z"/>
<path d="M2286 3345 c-21 -7 -50 -25 -65 -39 -25 -24 -67 -86 -58 -86 3 0 24
11 48 24 85 47 167 43 209 -11 39 -50 30 -58 -72 -58 -103 0 -142 -15 -182
-68 -32 -43 -30 -136 4 -172 71 -78 201 -71 257 13 24 37 25 36 43 -31 7 -26
16 -44 21 -40 34 36 60 266 39 343 -15 56 -72 114 -125 129 -51 14 -71 13
-119 -4z m154 -242 c0 -58 -32 -126 -66 -141 -39 -18 -91 -15 -114 8 -26 26
-27 89 -2 120 19 24 111 59 155 60 26 0 27 -2 27 -47z"/>
</g>
</svg>
